<?xml version="1.0" encoding="UTF-8"?>
<svg id="Layer_1" xmlns="http://www.w3.org/2000/svg" version="1.1" viewBox="0 0 710 601">
  <defs>
    <style>
      .st0 {
        fill: #fff;
      }
    </style>
  </defs>
  <path class="st0" d="M0,600.5V0h710v601H0v-.5ZM152.09,192.51c18.3.06,37.45-12.76,37.46-32.53V35.93c0-16.49-14.06-32.08-31.14-32.17l-118.34-.61C20.05,3.04,5.07,17.38,2.81,37.15l.09,121.83c2.24,17.89,16.51,33.12,35.1,33.18l114.09.35ZM675.72,192c17.3-.08,32.93-16,32.97-32.94l.3-122.96c-1.98-17.15-14.97-32.52-33.19-32.55l-120.79-.2c-17.72-.03-33.15,14.67-33.11,32.68l.24,123.89c.04,19.8,19.51,32.67,37.75,32.59l115.83-.52ZM249.36,522.8l39.35-.39c15.13-.15,22.78-12.43,26.17-25.7l99.45-388.93c1.1-4.3,4.61-7.03,8.67-7.02l41.05.08c-.27,4.55-1.04,9.05,1.05,12.2,3.02,4.57,10.25,4.62,14.38,1.59l25.52-18.72c2.67-1.96,4.46-6.42,4.36-9.41-.08-2.55-1.93-6.74-4.38-8.43l-27.26-18.89c-3.81-2.64-9.34-.86-11.79,2.17-2.61,3.24-2.82,6.76-1.76,12.74l-47.01.35c-15.37.11-24.11,11.73-27.74,25.37l-78.24,294.18-24,94.08c-.93,3.64-3.39,6.83-7.36,6.85l-29.72.15-.51-8.23c-.16-2.64-3.55-5.85-5.81-6.56-2.55-.8-6.91-.19-9.08,1.34l-27.63,19.51c-2.78,1.96-4.57,6.22-4.42,9.33.14,2.87,2.16,6.23,4.86,8.05l27.45,18.55c3.73,2.52,9.91.62,12.47-1.96,2.89-2.9,2.39-6.99,1.93-12.31ZM189.62,361.56l-.23-114.52c-.04-18.73-18.33-32.43-36.34-32.36l-118.05.47c-19.06.08-32.81,18.47-32.82,36.8l-.04,106.02c0,20.77,15.89,38.03,36.88,38.05l116.85.09c17.56-2.57,33.79-15.47,33.75-34.56ZM708.67,361.57l.32-113.35c-2.16-19.61-17.4-33.63-37.05-33.58l-117,.29c-18.02.05-33.11,16.12-33.09,34.08l.15,113.01c.03,19.44,18.23,34.09,36.86,34.1l112.24.02c18.79,0,37.51-14.34,37.56-34.56ZM189.48,565.56v-108.63c0-18.11-16.33-34.01-34.45-34.04l-120.99-.18c-19.26,2.99-31.84,18.9-31.87,38.44l-.13,99.79c-.03,20.51,13.69,36.52,34.18,39.06l119.4-.02c17.66-2.83,33.85-15.29,33.85-34.42ZM709.14,561.51v-100.51c0-20.6-14.93-38.17-36.25-38.21l-113.88-.21c-19.53-.04-37.19,14-37.14,34.53l.3,109.87c.05,18.1,17.12,30.6,33.89,33.02l119.47-.03c20.3-2.63,33.61-17.82,33.61-38.46Z"/>
  <path d="M152.09,192.51l-114.09-.35c-18.6-.06-32.87-15.28-35.1-33.18l-.09-121.83C5.07,17.38,20.05,3.04,40.06,3.15l118.34.61c17.07.09,31.14,15.68,31.14,32.17v124.05c0,19.77-19.16,32.59-37.46,32.53ZM126.6,100.2c2.91-1.89,2.19-6.31.08-7.69l-35.7-23.4c-1.6-1.05-4.98-1.22-6.32-.26-1.12.81-2.77,3.55-2.77,5.08l.06,45.19c0,1.5,2.28,4.35,3.53,4.99s3.91.19,5.51-.84l35.6-23.07Z"/>
  <path d="M675.72,192l-115.83.52c-18.24.08-37.72-12.79-37.75-32.59l-.24-123.89c-.03-18.01,15.4-32.71,33.11-32.68l120.79.2c18.22.03,31.21,15.41,33.19,32.55l-.3,122.96c-.04,16.94-15.67,32.86-32.97,32.94ZM623.03,122.76l12.46,8.76c.97.68,3.72.53,4.56-.06.67-.47,1.46-2.7,1.29-3.52l-3.81-17.49c-.78-3.59.29-6.59,3.16-8.7l11-8.09c1.18-.87,2.48-3.53,2.17-4.78-.26-1.07-2.21-3-3.31-3.15l-15.46-2.15c-10.13-1.41-10.56-14.74-18.07-23.87l-10.17,19.05c-1.69,3.16-5.15,4.69-8.87,5.16l-14.43,1.79c-1.24.15-3.6,1.96-3.95,3.11s.99,3.69,2,4.43l11.67,8.53c3.08,2.26,3.55,5.73,2.74,9.21l-3.6,15.65c-.29,1.24.73,4.12,1.86,4.62.97.43,3.73.27,4.65-.35l12.33-8.33c4.09-2.77,7.44-2.87,11.78.18Z"/>
  <path d="M708.67,361.57c-.06,20.22-18.77,34.56-37.56,34.56l-112.24-.02c-18.63,0-36.84-14.65-36.86-34.1l-.15-113.01c-.02-17.96,15.07-34.03,33.09-34.08l117-.29c19.65-.05,34.89,13.97,37.05,33.58l-.32,113.35ZM623.19,328.79l23.92-22.86c1.81-1.73,1.5-4.84.01-6.87l-24.36-23.6c-3.57-3.46-7.71-3.47-11.29,0l-23.88,23.12c-2.36,2.29-2.27,5.56-.01,7.81l23.03,22.92c3.57,3.56,8.89,3,12.58-.52Z"/>
  <path d="M189.62,361.56c.04,19.09-16.19,31.98-33.75,34.56l-116.85-.09c-20.99-.02-36.89-17.28-36.88-38.05l.04-106.02c0-18.33,13.76-36.73,32.82-36.8l118.05-.47c18.02-.07,36.3,13.62,36.34,32.36l.23,114.52ZM111.61,327.44c5.69,0,9.3-4.47,9.3-9.36l.03-32.21c0-4.32-2.8-9.1-7.99-9.12l-30.05-.15c-4.85-.02-9.37,3.95-9.37,8.97v32.77c0,5.26,4.59,9.1,9.35,9.1h28.73Z"/>
  <path d="M709.14,561.51c0,20.64-13.31,35.84-33.61,38.46l-119.47.03c-16.77-2.42-33.84-14.92-33.89-33.02l-.3-109.87c-.06-20.54,17.61-34.57,37.14-34.53l113.88.21c21.32.04,36.25,17.6,36.25,38.21v100.51ZM641.92,512.56c1.6-1.04,3.16-3.65,2.98-4.93-.16-1.1-1.5-3.2-2.51-3.85l-38.44-24.76c-1.91-1.23-7.25.45-7.26,2.77l-.11,50.33c0,1.99,1.8,4.89,3.42,5.36,1.28.38,3.92-.16,5.31-1.07l36.61-23.85Z"/>
  <path d="M189.48,565.56c0,19.13-16.19,31.59-33.85,34.42l-119.4.02c-20.49-2.53-34.21-18.54-34.18-39.06l.13-99.79c.03-19.54,12.61-35.45,31.87-38.44l120.99.18c18.13.03,34.46,15.92,34.46,34.04v108.63ZM109.29,536.79c1.61,1.03,4.92,1.35,6.37.59,1.38-.72,3.62-3.53,3.62-5.26v-49.26c0-1.78-2.17-4.62-3.6-5.26-1.25-.56-4.4-.28-5.64.54l-37.98,24.95c-1.44.95-2.98,3.83-2.82,5.28.14,1.27,1.66,3.68,2.87,4.46l37.18,23.96Z"/>
  <path d="M249.36,522.8c.46,5.32.96,9.41-1.93,12.31-2.56,2.57-8.73,4.48-12.47,1.96l-27.45-18.55c-2.7-1.82-4.73-5.18-4.86-8.05-.15-3.11,1.64-7.37,4.42-9.33l27.63-19.51c2.16-1.53,6.52-2.14,9.08-1.34,2.26.71,5.64,3.92,5.81,6.56l.51,8.23,29.72-.15c3.97-.02,6.43-3.21,7.36-6.85l24-94.08,78.24-294.18c3.63-13.64,12.37-25.25,27.74-25.37l47.01-.35c-1.06-5.98-.85-9.51,1.76-12.74,2.45-3.04,7.98-4.81,11.79-2.17l27.26,18.89c2.44,1.69,4.3,5.89,4.38,8.43.1,2.99-1.69,7.45-4.36,9.41l-25.52,18.72c-4.13,3.03-11.36,2.98-14.38-1.59-2.09-3.16-1.32-7.66-1.05-12.2l-41.05-.08c-4.06,0-7.57,2.72-8.67,7.02l-99.45,388.93c-3.39,13.27-11.05,25.55-26.17,25.7l-39.35.39Z"/>
  <path class="st0" d="M126.6,100.2l-35.6,23.07c-1.6,1.03-4.26,1.48-5.51.84s-3.53-3.49-3.53-4.99l-.06-45.19c0-1.53,1.64-4.27,2.77-5.08,1.33-.96,4.72-.79,6.32.26l35.7,23.4c2.11,1.38,2.83,5.8-.08,7.69Z"/>
  <path class="st0" d="M623.03,122.76c-4.34-3.05-7.69-2.95-11.78-.18l-12.33,8.33c-.92.62-3.68.78-4.65.35-1.14-.5-2.15-3.37-1.86-4.62l3.6-15.65c.8-3.48.34-6.95-2.74-9.21l-11.67-8.53c-1.02-.74-2.36-3.28-2-4.43s2.71-2.96,3.95-3.11l14.43-1.79c3.72-.46,7.19-2,8.87-5.16l10.17-19.05c7.51,9.13,7.95,22.47,18.07,23.87l15.46,2.15c1.1.15,3.05,2.08,3.31,3.15.3,1.25-.99,3.91-2.17,4.78l-11,8.09c-2.87,2.11-3.94,5.11-3.16,8.7l3.81,17.49c.18.82-.61,3.05-1.29,3.52-.84.58-3.59.74-4.56.06l-12.46-8.76Z"/>
  <path class="st0" d="M623.19,328.79c-3.69,3.53-9.01,4.08-12.58.52l-23.03-22.92c-2.26-2.25-2.35-5.53.01-7.81l23.88-23.12c3.58-3.47,7.72-3.46,11.29,0l24.36,23.6c1.49,2.03,1.8,5.14-.01,6.87l-23.92,22.86Z"/>
  <path class="st0" d="M111.61,327.44h-28.73c-4.76,0-9.35-3.83-9.35-9.09v-32.77c0-5.03,4.52-9,9.38-8.97l30.05.15c5.2.03,8,4.8,7.99,9.12l-.03,32.21c0,4.89-3.61,9.36-9.3,9.36Z"/>
  <path class="st0" d="M641.92,512.56l-36.61,23.85c-1.4.91-4.03,1.45-5.31,1.07-1.63-.48-3.43-3.38-3.42-5.36l.11-50.33c0-2.32,5.34-4,7.26-2.77l38.44,24.76c1.01.65,2.35,2.76,2.51,3.85.18,1.28-1.38,3.89-2.98,4.93Z"/>
  <path class="st0" d="M109.29,536.79l-37.18-23.96c-1.21-.78-2.72-3.18-2.87-4.46-.16-1.45,1.38-4.34,2.82-5.28l37.98-24.95c1.24-.82,4.4-1.1,5.64-.54,1.43.64,3.6,3.48,3.6,5.26v49.26c0,1.73-2.25,4.54-3.63,5.26-1.45.76-4.77.45-6.37-.59Z"/>
</svg>
